# xmcd CD database file
#
# Track frame offsets:
#	150
#	15275
#	33475
#	48187
#	64437
#	83965
#	99387
#	133075
#	159225
#
# Disc length: 2339 seconds
#
# Revision: 0
# Processed by: cddbd v1.5.1PL0 Copyright (c) Steve Scherf et al.
# Submitted via: CDex 1.51
#
DISCID=69092109
DTITLE=Al Jones - Hot'N'Heavy
DYEAR=1989
DGENRE=Blues
TTITLE0=She Got Me
TTITLE1=Nobody Wanna Die
TTITLE2=I Agree
TTITLE3=Shuffle Madness
TTITLE4=Tell Me Aint That Love
TTITLE5=Going Home
TTITLE6=Cut You Loose
TTITLE7=Sweet Little Angel
TTITLE8=Hot'N'Heavy
EXTD=YEAR: 1989
EXTT0=
EXTT1=
EXTT2=
EXTT3=
EXTT4=
EXTT5=
EXTT6=
EXTT7=
EXTT8=
PLAYORDER=
